PathFileType	4	(X/Y/Z)	OpenSim_Sub11_CSPreOp_Magnet.trc
DataRate	CameraRate	NumFrames	NumMarkers	Units	OrigDataRate	OrigDataStartFrame	OrigNumFrames
100	100	40	8	m	100	1388	3701
Frame#	Time	torso_imu_offset_imu	pelvis_imu_offset_imu	tibia_r_imu_offset_imu	femur_r_imu_offset_imu	tibia_l_imu_offset_imu	femur_l_imu_offset_imu	toes_r_imu_offset_imu	toes_l_imu_offset_imu
				X1	Y1	Z1	X2	Y2	Z2	X3	Y3	Z3	X4	Y4	Z4	X5	Y5	Z5	X6	Y6	Z6	X7	Y7	Z7	X8		Y8	Z8	

1388	13.87000000	-0.91821300	-0.21655300	0.05346700	-0.50732400	0.17041000	-0.67944300	-0.66528300	-0.42358400	-0.31640600	-0.71118200	-0.42773400	-0.06909200	-0.69531200	0.45922900	0.22802700	-0.68090800	0.31250000	0.55395500	-0.54345700	-0.33007800	-0.47338900	-0.82299800	-0.01928700	-0.28662100
1389	13.88000000	-0.92919900	-0.22094700	0.04687500	-0.49731400	0.16503900	-0.67382800	-0.68042000	-0.40478500	-0.31909200	-0.69555700	-0.44140600	-0.06225600	-0.68188500	0.45654300	0.23388700	-0.66967800	0.30810500	0.56323200	-0.53051800	-0.32836900	-0.46752900	-0.81298800	-0.02758800	-0.27710000
1390	13.89000000	-0.93359400	-0.21679700	0.05566400	-0.49340800	0.16772500	-0.67504900	-0.68530300	-0.39013700	-0.31298800	-0.68920900	-0.44091800	-0.06347700	-0.67504900	0.46215800	0.23413100	-0.66259800	0.31225600	0.56005900	-0.52221700	-0.31372100	-0.47876000	-0.80493200	-0.02636700	-0.27832000
1391	13.90000000	-0.93139600	-0.21655300	0.04687500	-0.49951200	0.16967800	-0.67480500	-0.69409200	-0.37133800	-0.31372100	-0.69238300	-0.44653300	-0.06054700	-0.68212900	0.46630900	0.23339800	-0.67065400	0.31518600	0.56616200	-0.52465800	-0.29614300	-0.48388700	-0.81347700	-0.02246100	-0.27221700
1392	13.91000000	-0.92480500	-0.22094700	0.05127000	-0.49169900	0.16796900	-0.67041000	-0.70507800	-0.35668900	-0.31201200	-0.68579100	-0.46020500	-0.05273400	-0.67285200	0.46215800	0.23925800	-0.66235400	0.31005900	0.56884800	-0.51586900	-0.29028300	-0.48657200	-0.80712900	-0.03100600	-0.26684600
1393	13.92000000	-0.92700200	-0.21875000	0.05346700	-0.49585000	0.17407200	-0.66772500	-0.70947300	-0.35058600	-0.31445300	-0.68408200	-0.45410200	-0.05053700	-0.67358400	0.47168000	0.24389600	-0.66284200	0.31518600	0.57373000	-0.51660200	-0.27758800	-0.48852500	-0.80761700	-0.02661100	-0.26342800
1394	13.93000000	-0.92041000	-0.21875000	0.04687500	-0.49902300	0.17431600	-0.66113300	-0.72241200	-0.34423800	-0.30566400	-0.68945300	-0.45971700	-0.04638700	-0.67651400	0.47387700	0.24951200	-0.66455100	0.31713900	0.57983400	-0.52002000	-0.27636700	-0.48535200	-0.81323200	-0.02978500	-0.25585900
1395	13.94000000	-0.92260700	-0.22094700	0.04467800	-0.49243200	0.17675800	-0.66772500	-0.72265600	-0.33374000	-0.30590800	-0.67895500	-0.45776400	-0.05542000	-0.66626000	0.47876000	0.24243200	-0.65747100	0.32006800	0.57397500	-0.50927700	-0.27270500	-0.49194300	-0.80346700	-0.03027300	-0.26220700
1396	13.95000000	-0.92895500	-0.22314500	0.05127000	-0.49658200	0.17358400	-0.66503900	-0.72045900	-0.33789100	-0.30590800	-0.68286100	-0.45874000	-0.05322300	-0.66894500	0.48266600	0.24023400	-0.65991200	0.32031200	0.57519500	-0.51562500	-0.27392600	-0.49560500	-0.80835000	-0.03369100	-0.25659200
1397	13.96000000	-0.92919900	-0.21875000	0.04467800	-0.50073200	0.17211900	-0.66870100	-0.72485400	-0.33398400	-0.29711900	-0.68579100	-0.46289100	-0.05859400	-0.66894500	0.48144500	0.23266600	-0.66235400	0.31640600	0.57080100	-0.51806600	-0.27856400	-0.49926800	-0.80981400	-0.03247100	-0.25903300
1398	13.97000000	-0.92675800	-0.22534200	0.05127000	-0.49658200	0.17675800	-0.66186500	-0.72680700	-0.33813500	-0.29907200	-0.68115200	-0.46093800	-0.04638700	-0.66088900	0.48632800	0.23901400	-0.65478500	0.32226600	0.58203100	-0.51049800	-0.27612300	-0.48901400	-0.80615200	-0.03149400	-0.24926800
1399	13.98000000	-0.93139600	-0.22094700	0.04467800	-0.49560500	0.18042000	-0.66235400	-0.72436500	-0.34643600	-0.29663100	-0.67919900	-0.46069300	-0.04394500	-0.66040000	0.49487300	0.24145500	-0.65283200	0.32617200	0.58569300	-0.51342800	-0.27514600	-0.48681600	-0.80517600	-0.02905300	-0.24462900
1400	13.99000000	-0.92675800	-0.22949200	0.04028300	-0.49511700	0.18066400	-0.66210900	-0.72412100	-0.35473600	-0.28735400	-0.67675800	-0.46313500	-0.04150400	-0.65625000	0.49902300	0.23706100	-0.65014600	0.32910200	0.58422900	-0.51196300	-0.27685500	-0.48437500	-0.80322300	-0.03369100	-0.24511700
1401	14	-0.93115200	-0.22314500	0.05371100	-0.49267600	0.16992200	-0.66430700	-0.72192400	-0.35693400	-0.28076200	-0.67456100	-0.47583000	-0.04101600	-0.65527300	0.49218800	0.23535200	-0.64843800	0.32275400	0.58691400	-0.51709000	-0.28833000	-0.48608400	-0.80078100	-0.03955100	-0.24731400
1402	14.01000000	-0.93139600	-0.22094700	0.04223600	-0.50439500	0.17773400	-0.67187500	-0.71508800	-0.37353500	-0.27343800	-0.68164100	-0.46655300	-0.04223600	-0.65893600	0.50439500	0.22656200	-0.65551800	0.33398400	0.57348600	-0.52710000	-0.27758800	-0.48706100	-0.80615200	-0.03369100	-0.25195300
1403	14.02000000	-0.92675800	-0.22949200	0.03564500	-0.49755900	0.17138700	-0.66040000	-0.71289100	-0.37768600	-0.27099600	-0.67358400	-0.48242200	-0.02734400	-0.65161100	0.50122100	0.23388700	-0.64794900	0.32788100	0.58471700	-0.52075200	-0.28930700	-0.47387700	-0.79882800	-0.04126000	-0.24121100
1404	14.03000000	-0.92675800	-0.22753900	0.03564500	-0.49609400	0.17553700	-0.65869100	-0.70825200	-0.39038100	-0.26391600	-0.66381800	-0.47973600	-0.02612300	-0.64404300	0.51245100	0.23022500	-0.64257800	0.33911100	0.58300800	-0.52124000	-0.29345700	-0.46752900	-0.79248000	-0.03344700	-0.23950200
1405	14.04000000	-0.92456100	-0.22314500	0.03344700	-0.49853500	0.17602500	-0.66479500	-0.70800800	-0.39868200	-0.26367200	-0.66626000	-0.48193400	-0.02417000	-0.64257800	0.51562500	0.22802700	-0.64355500	0.34375000	0.57910200	-0.52661100	-0.29785200	-0.46704100	-0.79687500	-0.03564500	-0.24096700
1406	14.05000000	-0.92675800	-0.22949200	0.03784200	-0.50756800	0.17431600	-0.66479500	-0.71044900	-0.39038100	-0.27734400	-0.66552700	-0.48388700	-0.01782200	-0.64526400	0.52368200	0.22485400	-0.64721700	0.34936500	0.58349600	-0.53320300	-0.28881800	-0.46460000	-0.80029300	-0.03051800	-0.23754900
1407	14.06000000	-0.92236300	-0.22290000	0.03100600	-0.50000000	0.15576200	-0.66162100	-0.71289100	-0.37573200	-0.26220700	-0.66235400	-0.50268600	-0.01464800	-0.63989300	0.51416000	0.22558600	-0.64160200	0.33935500	0.58422900	-0.53076200	-0.30737300	-0.45727500	-0.79541000	-0.04467800	-0.23486300
1408	14.07000000	-0.92675800	-0.22534200	0.03125000	-0.51293900	0.16088900	-0.65429700	-0.72143600	-0.36938500	-0.27343800	-0.66577100	-0.50000000	-0.00952100	-0.64575200	0.52465800	0.23071300	-0.65014600	0.34936500	0.58862300	-0.54443400	-0.29711900	-0.45043900	-0.80322300	-0.03955100	-0.22998000
1409	14.08000000	-0.92456100	-0.22314500	0.02661100	-0.50537100	0.15966800	-0.65942400	-0.72363300	-0.37158200	-0.27343800	-0.65405300	-0.50488300	-0.01391600	-0.63378900	0.52832000	0.22607400	-0.64086900	0.35083000	0.58569300	-0.53930700	-0.29467800	-0.44946300	-0.79467800	-0.03710900	-0.22949200
1410	14.09000000	-0.92895500	-0.22753900	0.02221700	-0.50952100	0.15869100	-0.65722700	-0.71289100	-0.37573200	-0.27319300	-0.65527300	-0.50415000	-0.01391600	-0.63549800	0.53686500	0.22387700	-0.64355500	0.35961900	0.58813500	-0.54687500	-0.29028300	-0.44506800	-0.79736300	-0.03173800	-0.22607400
1411	14.10000000	-0.92480500	-0.22314500	0.01757800	-0.51953100	0.15795900	-0.65429700	-0.71899400	-0.37988300	-0.27099600	-0.65502900	-0.50708000	-0.02124000	-0.63403300	0.54248000	0.22509800	-0.64477500	0.36059600	0.58544900	-0.55566400	-0.28784200	-0.44189500	-0.80004900	-0.02905300	-0.22631800
1412	14.11000000	-0.92480500	-0.22314500	0.01757800	-0.51342800	0.15527300	-0.65039100	-0.71704100	-0.37988300	-0.27099600	-0.64868200	-0.50708000	-0.01928700	-0.62573200	0.55004900	0.22656200	-0.64282200	0.36596700	0.59082000	-0.55419900	-0.28344700	-0.43164100	-0.79248000	-0.02636700	-0.22045900
1413	14.12000000	-0.93115200	-0.22534200	0.01098600	-0.52319300	0.14868200	-0.66064500	-0.71460000	-0.38818400	-0.25952100	-0.65429700	-0.51440400	-0.04028300	-0.63330100	0.54834000	0.21752900	-0.65039100	0.36059600	0.57788100	-0.56518600	-0.28637700	-0.43774400	-0.80053700	-0.03173800	-0.22705100
1414	14.13000000	-0.93139600	-0.21875000	0.01318400	-0.51489300	0.15234400	-0.66040000	-0.71435500	-0.39233400	-0.26391600	-0.64550800	-0.50903300	-0.04077100	-0.62231400	0.56347700	0.21386700	-0.64502000	0.37011700	0.57519500	-0.56543000	-0.28002900	-0.43554700	-0.79272500	-0.02368200	-0.22680700
1415	14.14000000	-0.93139600	-0.22314500	0.01318400	-0.52319300	0.14746100	-0.65356400	-0.71240200	-0.39453100	-0.26147500	-0.65161100	-0.51391600	-0.04126000	-0.62475600	0.56347700	0.21533200	-0.65210000	0.36669900	0.57641600	-0.57324200	-0.28295900	-0.42822300	-0.80224600	-0.02221700	-0.21948200
1416	14.15000000	-0.92700200	-0.22094700	0.00415000	-0.52612300	0.14746100	-0.65527300	-0.71215800	-0.39648400	-0.25708000	-0.65185500	-0.51733400	-0.04028300	-0.62036100	0.56738300	0.21606400	-0.65551800	0.36669900	0.57788100	-0.58105500	-0.28515600	-0.42675800	-0.80273400	-0.01977500	-0.21533200
1417	14.16000000	-0.93335000	-0.22534200	0.01538100	-0.51513700	0.14257800	-0.65649400	-0.71215800	-0.39868200	-0.25463900	-0.64086900	-0.51928700	-0.04223600	-0.60546900	0.57177700	0.21508800	-0.64697300	0.36767600	0.57202100	-0.57128900	-0.29003900	-0.42627000	-0.79321300	-0.02124000	-0.21557600
1418	14.17000000	-0.92895500	-0.22534200	0.00415000	-0.51855500	0.13916000	-0.65063500	-0.71386700	-0.40698200	-0.25000000	-0.63842800	-0.52832000	-0.03442400	-0.60083000	0.57446300	0.21826200	-0.65112300	0.36645500	0.57470700	-0.57470700	-0.29443400	-0.42016600	-0.79492200	-0.01831100	-0.20312500
1419	14.18000000	-0.92919900	-0.22094700	0.01098600	-0.52197300	0.13867200	-0.65332000	-0.71606400	-0.40918000	-0.24316400	-0.63989300	-0.53198200	-0.03564500	-0.59863300	0.58569300	0.21118200	-0.65673800	0.37182600	0.56176800	-0.57592800	-0.29150400	-0.42919900	-0.79858400	-0.01245100	-0.20483400
1420	14.19000000	-0.92919900	-0.22094700	-0.00048800	-0.52075200	0.14184600	-0.64843800	-0.70971700	-0.41113300	-0.24975600	-0.63110400	-0.53247100	-0.02905300	-0.58764600	0.59252900	0.21240200	-0.65551800	0.37475600	0.56274400	-0.57251000	-0.29028300	-0.42553700	-0.79418900	-0.00903300	-0.19555700
1421	14.20000000	-0.92919900	-0.22314500	0.00634800	-0.51538100	0.13525400	-0.65429700	-0.71362300	-0.41552700	-0.23852500	-0.62500000	-0.54101600	-0.02880900	-0.57959000	0.59765600	0.20703100	-0.65698200	0.37036100	0.55249000	-0.56933600	-0.29345700	-0.43188500	-0.79516600	-0.01001000	-0.19116200
1422	14.21000000	-0.93579100	-0.22094700	-0.00024400	-0.51489300	0.13354500	-0.64990200	-0.70947300	-0.41748000	-0.24292000	-0.61718800	-0.54882800	-0.02050800	-0.57006800	0.60376000	0.21118200	-0.65722700	0.36816400	0.55200200	-0.56811500	-0.30151400	-0.42675800	-0.79126000	-0.00732400	-0.17553700
1423	14.22000000	-0.92944300	-0.21655300	-0.00048800	-0.52563500	0.13330100	-0.65063500	-0.70727500	-0.41967800	-0.24047900	-0.62329100	-0.55322300	-0.02099600	-0.57104500	0.60888700	0.20971700	-0.67138700	0.36962900	0.54345700	-0.57739300	-0.29882800	-0.43261700	-0.80444300	-0.00585900	-0.16992200
1424	14.23000000	-0.93359400	-0.22314500	-0.00268600	-0.53051800	0.13671900	-0.65234400	-0.71142600	-0.41967800	-0.23828100	-0.62011700	-0.54907200	-0.02197300	-0.56738300	0.62646500	0.20361300	-0.68090800	0.37695300	0.53198200	-0.58105500	-0.29101600	-0.43335000	-0.80810500	0.00244100	-0.15747100
1425	14.24000000	-0.93139600	-0.22094700	-0.00268600	-0.52929700	0.12866200	-0.64477500	-0.70727500	-0.42382800	-0.23144500	-0.61816400	-0.56079100	-0.01440400	-0.55786100	0.62646500	0.21069300	-0.68408200	0.36962900	0.53540000	-0.57739300	-0.29858400	-0.42578100	-0.80737300	-0.00341800	-0.13818400
1426	14.25000000	-0.93579100	-0.22094700	-0.00708000	-0.53002900	0.12915000	-0.65698200	-0.70703100	-0.43017600	-0.22680700	-0.61279300	-0.56054700	-0.02563500	-0.54907200	0.63769500	0.19702100	-0.68701200	0.37231400	0.51757800	-0.58081100	-0.29370100	-0.44091800	-0.80932600	0.00293000	-0.13525400
1427	14.26000000	-0.92944300	-0.21655300	-0.00048800	-0.53027300	0.12500000	-0.63940400	-0.70898400	-0.42797900	-0.23364300	-0.60717800	-0.56250000	-0.00854500	-0.53466800	0.64233400	0.21704100	-0.68823200	0.36816400	0.52734400	-0.57714800	-0.29663100	-0.42334000	-0.80859400	0.00146500	-0.10522500
